<?xml version="1.0" encoding="UTF-8" standalone="no"?>
<!-- Created with Inkscape (http://www.inkscape.org/) -->

<svg
   width="370"
   height="100"
   viewBox="0 0 97.895831 26.458333"
   version="1.1"
   id="svg5"
   xml:space="preserve"
   xmlns="http://www.w3.org/2000/svg"
   xmlns:svg="http://www.w3.org/2000/svg"><defs
     id="defs2"><rect
       x="156.41821"
       y="78.801422"
       width="102.94891"
       height="15.695459"
       id="rect3163" /><rect
       x="151.97163"
       y="28.826904"
       width="181.96214"
       height="86.161781"
       id="rect2381" /><style
       id="style1065">.cls-1{fill:#ed1b24;fill-rule:evenodd;}</style></defs><g
     id="layer1"><g
       id="g3172"
       transform="scale(0.88602474,0.88194444)"><path
         class="cls-1"
         d="m 16.995341,4.8044429 c 2.234385,-2.3321467 3.804047,-4.34868538 7.261766,-4.7480827 6.471361,-0.73734922 12.412052,5.8876225 9.144249,12.4092518 -0.930063,1.857339 -2.823704,4.066594 -4.918452,6.233952 -2.298629,2.379627 -4.843038,4.711774 -6.624974,6.479737 L 16.998128,30 12.981818,26.134503 C 8.1499369,21.481383 0.28488559,15.624483 0.0055796,8.3682972 -0.17037081,3.285056 3.840355,0.02843066 8.4543772,0.08708291 12.57683,0.14294621 14.319656,2.1929977 16.995341,4.8044429 Z"
         id="path1071"
         style="stroke-width:0.279299" /><text
         xml:space="preserve"
         transform="matrix(0.80313725,0,0,0.80313725,-83.935686,-28.610196)"
         id="text2379"
         style="font-style:normal;font-variant:normal;font-weight:normal;font-stretch:normal;font-size:32px;line-height:1.25;font-family:Dyuthi;-inkscape-font-specification:Dyuthi;white-space:pre;shape-inside:url(#rect2381);display:inline"><tspan
           x="151.9707"
           y="55.232422"
           id="tspan7010">DATER</tspan></text><text
         xml:space="preserve"
         transform="matrix(0.70696359,0,0,0.70696359,-70.174308,-34.962862)"
         id="text3161"
         style="font-size:12px;line-height:1.25;font-family:sans-serif;white-space:pre;shape-inside:url(#rect3163);display:inline"><tspan
           x="156.41797"
           y="89.417969"
           id="tspan7014"><tspan
             style="font-family:C059;-inkscape-font-specification:C059"
             id="tspan7012">get the only one</tspan></tspan></text></g></g></svg>
